# xmcd
#
# Track frame offsets: 
#        150
#        15900
#        33150
#        48150
#        60750
#        74700
#        90000
#        103350
#        131331
#        148431
#        167931
#        183381
#        198831
#        218781
#        235281
#
# Disc length: 3325 seconds
#
# Revision: 0
# Processed by: cddbd v1.5PL3 Copyright (c) Steve Scherf et al.
# Submitted via: ExactAudioCopy v0.95a4
#
DISCID=ca0cfb0f
DTITLE=Heli Deinbök - Nimm Da Nur
DYEAR=2004
DGENRE=Blues
TTITLE0=Big Mac
TTITLE1=Gestern
TTITLE2=Alte Freunde
TTITLE3=Lick Leck Luki
TTITLE4=I Wars Ned
TTITLE5=He Darling
TTITLE6=Ripper Vom Bipa
TTITLE7=Boogie Mann
TTITLE8=Stehaufmanderl
TTITLE9=Nimm Da Nur
TTITLE10=Ghoid Mi
TTITLE11=Warum Hochwürden
TTITLE12=Diagnose Blues
TTITLE13=Wie Einfach
TTITLE14=Gusto Poka
EXTD=
EXTT0=
EXTT1=
EXTT2=
EXTT3=
EXTT4=
EXTT5=
EXTT6=
EXTT7=
EXTT8=
EXTT9=
EXTT10=
EXTT11=
EXTT12=
EXTT13=
EXTT14=
PLAYORDER=
